<svg width="16" height="15" viewBox="0 0 16 15" fill="none" xmlns="http://www.w3.org/2000/svg">
<path id="facebook - icon" fill-rule="evenodd" clip-rule="evenodd" d="M14.2907 0H0.834788C0.373643 0 0 0.370595 0 0.82791V14.1721C0 14.6293 0.373643 15 0.834788 15H8.07902V9.1912H6.10789V6.92739H8.07902V5.25791C8.07902 3.32052 9.27221 2.26555 11.015 2.26555C11.8498 2.26555 12.5673 2.32715 12.7764 2.35475V4.37942L11.5677 4.37998C10.6199 4.37998 10.4363 4.82662 10.4363 5.4821V6.92739H12.6968L12.4025 9.1912H10.4363V15H14.2907C14.7517 15 15.1255 14.6293 15.1255 14.1721V0.82791C15.1255 0.370595 14.7517 0 14.2907 0Z" fill="white"/>
</svg>
