<svg width="16" height="15" viewBox="0 0 16 15" fill="none" xmlns="http://www.w3.org/2000/svg">
<path id="instagram - icon" fill-rule="evenodd" clip-rule="evenodd" d="M7.56039 0C5.5071 0 5.24964 0.00863089 4.44327 0.0451187C3.63853 0.0815172 3.08897 0.208272 2.60804 0.393598C2.11088 0.585204 1.68926 0.841571 1.26895 1.25838C0.84865 1.67523 0.590136 2.09335 0.396925 2.58638C0.210017 3.06328 0.08223 3.60831 0.0454966 4.40634C0.00870318 5.20603 0 5.46136 0 7.49759C0 9.5338 0.00870318 9.78912 0.0454966 10.5888C0.08223 11.3869 0.210017 11.9319 0.396925 12.4088C0.590136 12.9018 0.84865 13.3199 1.26895 13.7368C1.68926 14.1536 2.11088 14.41 2.60804 14.6016C3.08897 14.7869 3.63853 14.9136 4.44327 14.95C5.24964 14.9865 5.5071 14.9952 7.56039 14.9952C9.61368 14.9952 9.87115 14.9865 10.6775 14.95C11.4823 14.9136 12.0318 14.7869 12.5127 14.6016C13.0099 14.41 13.4315 14.1536 13.8518 13.7368C14.2721 13.3199 14.5306 12.9018 14.7239 12.4088C14.9108 11.9319 15.0386 11.3869 15.0753 10.5888C15.1121 9.78912 15.1208 9.5338 15.1208 7.49759C15.1208 5.46136 15.1121 5.20603 15.0753 4.40634C15.0386 3.60831 14.9108 3.06328 14.7239 2.58638C14.5306 2.09335 14.2721 1.67523 13.8518 1.25838C13.4315 0.841571 13.0099 0.585204 12.5127 0.393598C12.0318 0.208272 11.4823 0.0815172 10.6775 0.0451187C9.87115 0.00863089 9.61368 0 7.56039 0ZM7.56036 1.35095C9.57908 1.35095 9.81818 1.3586 10.6154 1.39467C11.3525 1.42801 11.7529 1.55015 12.0193 1.65282C12.3721 1.78884 12.624 1.9513 12.8886 2.21368C13.1531 2.47603 13.317 2.72579 13.4541 3.07576C13.5576 3.33996 13.6808 3.73695 13.7144 4.46795C13.7508 5.25854 13.7585 5.49568 13.7585 7.49763C13.7585 9.49955 13.7508 9.73669 13.7144 10.5273C13.6808 11.2583 13.5576 11.6553 13.4541 11.9195C13.317 12.2694 13.1531 12.5192 12.8886 12.7816C12.624 13.0439 12.3721 13.2064 12.0193 13.3424C11.7529 13.4451 11.3525 13.5672 10.6154 13.6006C9.8183 13.6366 9.5792 13.6443 7.56036 13.6443C5.54153 13.6443 5.30243 13.6366 4.50534 13.6006C3.76821 13.5672 3.36786 13.4451 3.10145 13.3424C2.74858 13.2064 2.49673 13.0439 2.23216 12.7816C1.96761 12.5192 1.80375 12.2694 1.6666 11.9195C1.56309 11.6553 1.43993 11.2583 1.40628 10.5273C1.36991 9.73669 1.36223 9.49955 1.36223 7.49763C1.36223 5.49568 1.36991 5.25854 1.40628 4.46795C1.43993 3.73695 1.56309 3.33996 1.6666 3.07576C1.80375 2.72579 1.96761 2.47603 2.23216 2.21368C2.49673 1.9513 2.74858 1.78884 3.10145 1.65282C3.36786 1.55015 3.76821 1.42801 4.50531 1.39467C5.30255 1.3586 5.54165 1.35095 7.56036 1.35095ZM12.5033 3.4954C12.5033 3.9923 12.0971 4.39509 11.5961 4.39509C11.095 4.39509 10.6888 3.9923 10.6888 3.4954C10.6888 2.9985 11.095 2.5957 11.5961 2.5957C12.0971 2.5957 12.5033 2.9985 12.5033 3.4954ZM7.56033 3.64746C5.41617 3.64746 3.67796 5.3712 3.67796 7.49758C3.67796 9.62393 5.41617 11.3477 7.56033 11.3477C9.70449 11.3477 11.4427 9.62393 11.4427 7.49758C11.4427 5.3712 9.70449 3.64746 7.56033 3.64746ZM7.56036 9.9968C6.16854 9.9968 5.04022 8.87788 5.04022 7.49762C5.04022 6.11733 6.16854 4.99841 7.56036 4.99841C8.95218 4.99841 10.0805 6.11733 10.0805 7.49762C10.0805 8.87788 8.95218 9.9968 7.56036 9.9968Z" fill="white"/>
</svg>
